<?xml version="1.0" encoding="UTF-8"?>
<svg id="Layer_1" data-name="Layer 1" xmlns="http://www.w3.org/2000/svg" viewBox="0 0 426.7 426.7">
  <defs>
    <style>
      .cls-1 {
        fill: #dee0e2;
      }
    </style>
  </defs>
  <rect x="-3.91" y="-3.91" width="434.51" height="434.51"/>
  <g>
    <g>
      <path class="cls-1" d="M213.35,85.25c-70.8,0-128.1,57.4-128.1,128.1s57.4,128.1,128.1,128.1,128.1-57.4,128.1-128.1-57.4-128.1-128.1-128.1h0ZM213.35,261.75c-26.7,0-48.4-21.7-48.4-48.4s21.7-48.4,48.4-48.4,48.4,21.7,48.4,48.4-21.7,48.4-48.4,48.4h0Z"/>
      <circle class="cls-1" cx="213.35" cy="213.35" r="20.1"/>
    </g>
    <path d="M294.25,196.55c-2,0-3.8-1.3-4.3-3.4-6.9-26.3-27.4-47.6-53.5-55.5-2.4-.7-3.7-3.2-3-5.6.7-2.4,3.2-3.7,5.6-3,29,8.8,51.8,32.5,59.6,61.8.6,2.4-.8,4.9-3.2,5.5s-.8.1-1.2.1h0v.1Z"/>
    <path d="M315.05,191.25c-2,0-3.8-1.3-4.3-3.4-9.3-35.5-37.2-63.1-72.9-72-2.4-.6-3.9-3-3.3-5.5.6-2.4,3-3.9,5.5-3.3,38.8,9.7,69.3,39.8,79.4,78.5.6,2.4-.8,4.9-3.2,5.5-.4.1-.8.1-1.1.1h0l-.1.1Z"/>
    <path d="M188.95,297.85c-.4,0-.9,0-1.3-.2-29-8.8-51.8-32.5-59.6-61.8-.6-2.4.8-4.9,3.2-5.5s4.9.8,5.5,3.2c6.9,26.3,27.4,47.6,53.5,55.5,2.4.7,3.7,3.2,3,5.6-.6,1.9-2.4,3.2-4.3,3.2h0Z"/>
    <path d="M187.85,319.75c-.4,0-.7,0-1.1-.1-38.8-9.7-69.3-39.8-79.4-78.5-.6-2.4.8-4.9,3.2-5.5s4.9.8,5.5,3.2c9.3,35.5,37.2,63.1,72.9,72,2.4.6,3.9,3,3.3,5.5-.5,2-2.3,3.4-4.4,3.4h0Z"/>
  </g>
</svg>