<?xml version="1.0" encoding="UTF-8"?>
<svg id="Layer_1" xmlns="http://www.w3.org/2000/svg" version="1.1" viewBox="0 0 512 512">
  <!-- Generator: Adobe Illustrator 29.5.1, SVG Export Plug-In . SVG Version: 2.1.0 Build 141)  -->
  <defs>
    <style>
      .st0 {
        fill: #fff;
      }

      .st1 {
        fill: #283037;
      }
    </style>
  </defs>
  <rect class="st1" x="-822" y="31.7" width="426.7" height="426.7" rx="15.7" ry="15.7"/>
  <g>
    <path class="st0" d="M-608.7,116.9c-70.8,0-128.1,57.4-128.1,128.1s57.4,128.1,128.1,128.1,128.1-57.4,128.1-128.1-57.4-128.1-128.1-128.1h0ZM-608.7,293.4c-26.7,0-48.4-21.7-48.4-48.4s21.7-48.4,48.4-48.4,48.4,21.7,48.4,48.4-21.7,48.4-48.4,48.4h0Z"/>
    <circle class="st0" cx="-608.7" cy="245" r="20.1"/>
  </g>
  <path class="st1" d="M-527.8,228.2c-2,0-3.8-1.3-4.3-3.4-6.9-26.3-27.4-47.6-53.5-55.5-2.4-.7-3.7-3.2-3-5.6.7-2.4,3.2-3.7,5.6-3,29,8.8,51.8,32.5,59.6,61.8.6,2.4-.8,4.9-3.2,5.5-.4.1-.8.1-1.2.1Z"/>
  <path class="st1" d="M-507,222.9c-2,0-3.8-1.3-4.3-3.4-9.3-35.5-37.2-63.1-72.9-72-2.4-.6-3.9-3-3.3-5.5.6-2.4,3-3.9,5.5-3.3,38.8,9.7,69.3,39.8,79.4,78.5.6,2.4-.8,4.9-3.2,5.5-.4.1-.8.1-1.1.1Z"/>
  <path class="st1" d="M-633.1,329.5c-.4,0-.9,0-1.3-.2-29-8.8-51.8-32.5-59.6-61.8-.6-2.4.8-4.9,3.2-5.5s4.9.8,5.5,3.2c6.9,26.3,27.4,47.6,53.5,55.5,2.4.7,3.7,3.2,3,5.6-.6,1.9-2.4,3.2-4.3,3.2Z"/>
  <path class="st1" d="M-634.2,351.4c-.4,0-.7,0-1.1-.1-38.8-9.7-69.3-39.8-79.4-78.5-.6-2.4.8-4.9,3.2-5.5,2.4-.6,4.9.8,5.5,3.2,9.3,35.5,37.2,63.1,72.9,72,2.4.6,3.9,3,3.3,5.5-.5,2-2.3,3.4-4.4,3.4Z"/>
  <g>
    <rect class="st1" x="-257.9" y="149.1" width="192" height="192" rx="20.2" ry="20.2"/>
    <g>
      <path class="st0" d="M-161.9,187.4c-31.9,0-57.6,25.8-57.6,57.6s25.8,57.6,57.6,57.6,57.6-25.8,57.6-57.6-25.8-57.6-57.6-57.6h0ZM-161.9,266.8c-12,0-21.8-9.8-21.8-21.8s9.8-21.8,21.8-21.8,21.8,9.8,21.8,21.8-9.8,21.8-21.8,21.8h0Z"/>
      <circle class="st0" cx="-161.9" cy="245.1" r="9"/>
    </g>
    <path class="st1" d="M-125.5,237.5c-.9,0-1.7-.6-2-1.5-3.1-11.8-12.3-21.4-24.1-25-1.1-.3-1.7-1.5-1.3-2.5.3-1.1,1.5-1.7,2.5-1.3,13.1,4,23.3,14.6,26.8,27.8.3,1.1-.4,2.2-1.4,2.5-.2,0-.3,0-.5,0Z"/>
    <path class="st1" d="M-116.2,235.1c-.9,0-1.7-.6-2-1.5-4.2-16-16.8-28.4-32.8-32.4-1.1-.3-1.7-1.4-1.5-2.5.3-1.1,1.4-1.7,2.5-1.5,17.5,4.4,31.2,17.9,35.7,35.3.3,1.1-.4,2.2-1.4,2.5-.2,0-.3,0-.5,0Z"/>
    <path class="st1" d="M-172.9,283.1c-.2,0-.4,0-.6,0-13.1-4-23.3-14.6-26.8-27.8-.3-1.1.4-2.2,1.4-2.5s2.2.4,2.5,1.4c3.1,11.8,12.3,21.4,24.1,25,1.1.3,1.7,1.5,1.3,2.5-.3.9-1.1,1.4-1.9,1.4Z"/>
    <path class="st1" d="M-173.4,292.9c-.2,0-.3,0-.5,0-17.5-4.4-31.2-17.9-35.7-35.3-.3-1.1.4-2.2,1.4-2.5,1.1-.3,2.2.4,2.5,1.4,4.2,16,16.8,28.4,32.8,32.4,1.1.3,1.7,1.4,1.5,2.5-.2.9-1.1,1.5-2,1.5Z"/>
  </g>
  <g>
    <rect class="st1" y="0" width="512" height="512" rx="54" ry="54"/>
    <g>
      <path class="st0" d="M255.9,102.2c-85,0-153.7,68.9-153.7,153.7s68.9,153.7,153.7,153.7,153.7-68.9,153.7-153.7-68.9-153.7-153.7-153.7h0ZM255.9,314c-32,0-58.1-26-58.1-58.1s26-58.1,58.1-58.1,58.1,26,58.1,58.1-26,58.1-58.1,58.1h0Z"/>
      <circle class="st0" cx="255.9" cy="255.9" r="24.1"/>
    </g>
    <path class="st1" d="M353,235.7c-2.4,0-4.6-1.6-5.2-4-8.3-31.6-32.9-57.1-64.2-66.5-2.9-.9-4.5-3.9-3.6-6.7.9-2.9,3.9-4.5,6.7-3.6,34.8,10.6,62.2,39,71.5,74.1.8,2.9-1,5.8-3.8,6.6-.5.1-.9.2-1.4.2Z"/>
    <path class="st1" d="M378,229.3c-2.4,0-4.6-1.6-5.2-4-11.2-42.6-44.7-75.8-87.5-86.4-2.9-.7-4.7-3.7-3.9-6.5.7-2.9,3.6-4.7,6.5-3.9,46.6,11.6,83.1,47.7,95.3,94.2.8,2.9-1,5.8-3.9,6.6-.5.1-.9.2-1.4.2Z"/>
    <path class="st1" d="M226.7,357.3c-.5,0-1,0-1.6-.2-34.8-10.6-62.2-39-71.5-74.1-.8-2.9,1-5.8,3.8-6.6,2.9-.8,5.8,1,6.6,3.8,8.3,31.6,32.9,57.1,64.2,66.5,2.9.9,4.5,3.9,3.6,6.7-.7,2.3-2.8,3.8-5.2,3.8Z"/>
    <path class="st1" d="M225.3,383.6c-.4,0-.9,0-1.3-.2-46.6-11.6-83.1-47.7-95.3-94.2-.8-2.9,1-5.8,3.9-6.6,2.9-.8,5.8,1,6.6,3.9,11.2,42.6,44.7,75.8,87.5,86.4,2.9.7,4.7,3.7,3.9,6.5-.6,2.5-2.8,4.1-5.2,4.1Z"/>
  </g>
</svg>